<svg xmlns="http://www.w3.org/2000/svg" xmlns:xlink="http://www.w3.org/1999/xlink" version="1.1" id="Layer_1" x="0px" y="0px" width="192" height="40" viewBox="0 0 169 104" style="enable-background:new 0 0 169 104;" xml:space="preserve">
<style type="text/css">
	.st0{fill:#68C6C2;}
	.st1{fill:#5AC4C3;}
	.st2{fill:#F49224;}
	.st3{fill:#F26F21;}
	.st4{fill:#857C3C;}
	.st5{fill:#231F20;}
</style>
<g>
	<path class="st0" d="M66.7,58.9C66.7,58.9,66.7,58.9,66.7,58.9C66.7,58.9,66.7,58.9,66.7,58.9L66.7,58.9z"/>
	<path class="st1" d="M18.9,66.2c0,19.1,10.4,45.5,20.8,35.1c12.7-12.7,27.9-34.9,27.7-41.4C50,75.3,32.2,73.5,18.9,66.2"/>
	<path class="st2" d="M66.7,59.1c0,0,0-0.1,0-0.2L66.7,59.1C66.7,59.1,66.7,59.1,66.7,59.1"/>
	<path class="st3" d="M20.7,54.6c6.6-16.2,45.9,4.6,46.7,5c-1.1-5-25.4-76.9-65.2-55.1C-0.6,6.7,4,12.9,2.6,21.4   C1.2,29.8-4.1,48,9.4,59.6c2.8,2.4,6,4.7,9.4,6.6C18.9,61.7,19.4,57.7,20.7,54.6"/>
	<path class="st4" d="M67.4,59.8c0-0.1,0-0.1,0-0.2c0,0,0-0.1,0-0.1c-0.8-0.4-40.1-21.2-46.7-5c-1.3,3.1-1.8,7.1-1.8,11.6   C32.2,73.5,50,75.3,67.4,59.8"/>
	<path class="st5" d="M79.6,32.1c0-5.4-0.1-6.2-3.1-6.4l-1.3-0.1c-0.3-0.2-0.2-1.1,0.1-1.3c2.5,0.1,4.1,0.2,6.4,0.2   c2,0,3.7,0,5.9-0.2c0.3,0.2,0.4,1.1,0.1,1.3l-1,0.1c-3,0.3-3.1,1.1-3.1,6.4V38c0,1,0.1,1.9,0.7,1.9c0.5,0,1.1-0.3,1.4-0.6   c0.7-0.6,2.1-1.9,2.6-2.4l5.5-5.4c1-0.9,3.5-3.5,4-4.2c0.2-0.4,0.4-0.6,0.4-0.8c0-0.2-0.2-0.4-0.9-0.5l-1.4-0.3   c-0.4-0.4-0.3-1,0.1-1.3c1.8,0.1,3.8,0.2,5.6,0.2c1.8,0,3.5,0,5-0.2c0.4,0.3,0.4,1,0.1,1.3c-1.3,0.1-3.3,0.6-4.7,1.4   c-1.4,0.8-4.3,3.2-7.1,5.9l-4.6,4.3c-0.7,0.7-1.2,1.2-1.2,1.6c0,0.4,0.3,0.8,1,1.6C95.1,46,99,50.6,103,54.7   c1.2,1.2,2.3,1.9,4.1,2.1l1.4,0.1c0.4,0.3,0.3,1.1-0.1,1.3c-1.3-0.1-3.3-0.1-5.7-0.1c-2.1,0-3.9,0-6.2,0.1c-0.4-0.1-0.5-1-0.2-1.3   l1.2-0.2c0.7-0.1,1.2-0.3,1.2-0.5c0-0.3-0.4-0.7-0.7-1.2c-1-1.2-2.3-2.6-4.2-4.8l-4.1-4.6c-2.9-3.3-3.7-4.3-4.9-4.3   c-0.8,0-0.9,0.7-0.9,2.4v6.6c0,5.3,0.1,6.1,3,6.4l1.4,0.1c0.3,0.2,0.2,1.1-0.1,1.3c-2.5-0.1-4.2-0.1-6.2-0.1c-2.1,0-3.8,0-5.9,0.1   c-0.3-0.1-0.4-0.9-0.1-1.3l1-0.1c2.7-0.4,2.8-1,2.8-6.4V32.1z"/>
	<path class="st5" d="M109.2,48.5c-0.4,0-0.7-0.4-0.7-0.9c0-0.6,0.2-0.9,0.9-1.9l16.3-22.8c0.4-0.5,0.7-0.7,1.2-0.7h0.9   c0.5,0,0.8,0.2,0.8,0.4c0,0.2-0.1,0.4-0.3,0.6l-16.2,22.4c-0.6,0.8,0.1,0.8,1.4,0.8h7.9c1.2,0,1.4-0.2,1.4-1.3v-9.4   c0-0.4,0-0.8,0.5-1c0.6-0.4,1.8-0.8,2.6-0.9c0.7-0.1,0.7,0.6,0.7,1.6v9.8c0,1,0.2,1.2,1,1.2h3.3c0.4,0.4,0.4,1.7,0,2.1h-2.7   c-1.3,0-1.5,0.1-1.5,1.1v2.3c0,4,0.1,4.7,2.2,4.9l1.3,0.1c0.3,0.3,0.3,1.1-0.1,1.3c-1.8-0.1-3.7-0.1-5.3-0.1c-1.8,0-4.1,0-6.4,0.1   c-0.4-0.1-0.4-1-0.1-1.3l2.3-0.1c2.1-0.2,2.3-1,2.3-4.9v-2.1c0-1.2-0.2-1.3-1.5-1.3H109.2z"/>
	<path class="st5" d="M142.6,28c3.7-2.9,8.5-4.3,13.7-4.3c2.8,0,6.6,0.6,9,1.2c0.6,0.2,1,0.3,1.4,0.2c0.1,1.2,0.3,4.4,0.7,7.5   c-0.3,0.4-1,0.4-1.4,0.1c-0.8-3.5-3-7.4-10.4-7.4c-7.8,0-14.4,4.9-14.4,15.5c0,10.7,6.8,16.6,15.1,16.6c6.6,0,9.5-4.3,10.6-7.3   c0.4-0.3,1.1-0.2,1.3,0.2c-0.4,2.6-1.7,6-2.4,7c-0.6,0.1-1.2,0.3-1.8,0.5c-1.1,0.4-4.8,1.2-8,1.2c-4.6,0-9-0.9-12.7-3.4   c-4.1-2.8-7.2-7.4-7.2-14C136.2,35.9,138.7,31,142.6,28"/>
	<path class="st5" d="M81.6,73c0.1,0.1,0.1,0.2,0.1,0.3c0,0.1,0,0.2-0.1,0.3c-0.1,0.1-0.2,0.1-0.3,0.1c-0.1,0-0.3-0.1-0.3-0.2   l-2.6-3.4l-1.2,1.2v1.9c0,0.1,0,0.2-0.1,0.3c-0.1,0.1-0.2,0.1-0.3,0.1c-0.1,0-0.2,0-0.3-0.1c-0.1-0.1-0.1-0.2-0.1-0.3V67   c0-0.1,0-0.2,0.1-0.3c0.1-0.1,0.2-0.1,0.3-0.1c0.1,0,0.2,0,0.3,0.1c0.1,0.1,0.1,0.2,0.1,0.3v3.2l3.5-3.5c0.1-0.1,0.2-0.2,0.3-0.2   c0.1,0,0.2,0,0.3,0.1c0.1,0.1,0.1,0.2,0.1,0.3c0,0.1,0,0.2-0.1,0.3l-2.3,2.3L81.6,73z"/>
	<path class="st5" d="M86.9,71l-1.4-3.3L84.2,71H86.9z M88.8,73.1c0,0.1,0.1,0.2,0.1,0.3c0,0.1,0,0.2-0.1,0.3   c-0.1,0.1-0.2,0.1-0.4,0.1c-0.2,0-0.3-0.1-0.4-0.3l-0.7-1.6h-3.5l-0.7,1.6c-0.1,0.2-0.2,0.3-0.4,0.3c-0.2,0-0.3,0-0.4-0.1   c-0.1-0.1-0.1-0.2-0.1-0.3c0-0.1,0-0.2,0-0.3l2.6-6.1c0.1-0.3,0.3-0.4,0.6-0.4h0.1c0.3,0,0.5,0.1,0.6,0.4L88.8,73.1z"/>
	<path class="st5" d="M92.9,70c0.6,0,1-0.1,1.4-0.3c0.3-0.2,0.5-0.5,0.5-1c0-0.4-0.1-0.7-0.4-0.9c-0.3-0.2-0.8-0.3-1.5-0.3H91V70   H92.9z M95.6,73.3c0,0.1,0,0.2-0.1,0.3c-0.1,0.1-0.2,0.1-0.3,0.1c-0.1,0-0.2,0-0.3-0.1c-0.1-0.1-0.1-0.2-0.1-0.3V73   c0-0.5-0.1-1-0.2-1.2c-0.1-0.3-0.3-0.5-0.5-0.6c-0.2-0.2-0.5-0.2-0.9-0.2H91v2.4c0,0.1,0,0.2-0.1,0.3c-0.1,0.1-0.2,0.1-0.3,0.1   c-0.1,0-0.2,0-0.3-0.1c-0.1-0.1-0.1-0.2-0.1-0.3V67c0-0.1,0-0.2,0.1-0.3c0.1-0.1,0.2-0.1,0.3-0.1h2.4c0.9,0,1.6,0.2,2.1,0.6   c0.4,0.4,0.7,0.9,0.7,1.5c0,0.4-0.1,0.8-0.3,1.1c-0.2,0.3-0.5,0.6-1,0.7c0.5,0.1,0.8,0.5,1.1,1.1c0.1,0.4,0.2,0.8,0.2,1.3V73.3z"/>
	<path class="st5" d="M105,66.7c0.1,0.1,0.2,0.3,0.2,0.5v6.1c0,0.1,0,0.2-0.1,0.3c-0.1,0.1-0.2,0.1-0.3,0.1c-0.1,0-0.2,0-0.3-0.1   c-0.1-0.1-0.1-0.2-0.1-0.3v-5.8l-2.3,5.8c-0.1,0.1-0.1,0.2-0.3,0.3c-0.1,0.1-0.2,0.1-0.4,0.1c-0.1,0-0.3,0-0.4-0.1   c-0.1-0.1-0.2-0.2-0.3-0.3l-2.3-5.8v5.8c0,0.1,0,0.2-0.1,0.3c-0.1,0.1-0.2,0.1-0.3,0.1c-0.1,0-0.2,0-0.3-0.1   c-0.1-0.1-0.1-0.2-0.1-0.3v-6.1c0-0.2,0.1-0.3,0.2-0.5c0.1-0.1,0.3-0.2,0.5-0.2h0.3c0.1,0,0.3,0,0.4,0.1c0.1,0.1,0.2,0.2,0.2,0.3   l2.3,5.8l2.3-5.8c0.1-0.1,0.1-0.2,0.3-0.3c0.1-0.1,0.2-0.1,0.4-0.1h0.3C104.7,66.5,104.9,66.6,105,66.7"/>
	<path class="st5" d="M111.1,71l-1.4-3.3l-1.4,3.3H111.1z M113,73.1c0,0.1,0.1,0.2,0.1,0.3c0,0.1,0,0.2-0.1,0.3   c-0.1,0.1-0.2,0.1-0.4,0.1c-0.2,0-0.3-0.1-0.4-0.3l-0.7-1.6H108l-0.7,1.6c-0.1,0.2-0.2,0.3-0.4,0.3c-0.2,0-0.3,0-0.4-0.1   c-0.1-0.1-0.1-0.2-0.1-0.3c0-0.1,0-0.2,0.1-0.3l2.6-6.1c0.1-0.3,0.3-0.4,0.6-0.4h0.1c0.3,0,0.5,0.1,0.6,0.4L113,73.1z"/>
	<path class="st3" d="M117.9,67.4v2.3h3.1c0.1,0,0.2,0,0.3,0.1c0.1,0.1,0.1,0.2,0.1,0.3c0,0.1,0,0.2-0.1,0.3   c-0.1,0.1-0.2,0.1-0.3,0.1h-3.1v2.7c0,0.1-0.1,0.2-0.1,0.3c-0.1,0.1-0.2,0.1-0.3,0.1c-0.1,0-0.2,0-0.3-0.1   c-0.1-0.1-0.1-0.2-0.1-0.3V67c0-0.1,0-0.3,0.1-0.3c0.1-0.1,0.2-0.1,0.3-0.1h4c0.1,0,0.2,0,0.3,0.1c0.1,0.1,0.1,0.2,0.1,0.3   c0,0.1,0,0.2-0.1,0.3c-0.1,0.1-0.2,0.1-0.3,0.1H117.9z"/>
	<path class="st3" d="M126.3,72.9c0.8,0,1.5-0.3,2-0.8c0.5-0.5,0.7-1.2,0.7-2c0-0.8-0.2-1.5-0.7-2c-0.5-0.5-1.1-0.8-2-0.8   c-0.8,0-1.5,0.3-2,0.8c-0.5,0.5-0.7,1.2-0.7,2c0,0.8,0.2,1.5,0.7,2C124.8,72.6,125.5,72.9,126.3,72.9 M126.3,66.5   c1.1,0,1.9,0.3,2.6,1c0.6,0.7,1,1.5,1,2.6c0,1.1-0.4,2-1,2.6c-0.7,0.7-1.5,1-2.6,1c-1.1,0-1.9-0.3-2.6-1c-0.7-0.7-1-1.6-1-2.6   c0-1.1,0.3-1.9,1-2.6C124.3,66.8,125.2,66.5,126.3,66.5"/>
	<path class="st3" d="M134.2,70c0.6,0,1-0.1,1.4-0.3c0.4-0.2,0.5-0.5,0.5-1c0-0.4-0.1-0.7-0.4-0.9c-0.3-0.2-0.8-0.3-1.5-0.3h-1.8V70   H134.2z M136.9,73.3c0,0.1,0,0.2-0.1,0.3c-0.1,0.1-0.2,0.1-0.3,0.1c-0.1,0-0.2,0-0.3-0.1c-0.1-0.1-0.1-0.2-0.1-0.3V73   c0-0.5-0.1-1-0.2-1.2c-0.1-0.3-0.3-0.5-0.5-0.6c-0.2-0.2-0.5-0.2-0.9-0.2h-2.1v2.4c0,0.1,0,0.2-0.1,0.3c-0.1,0.1-0.2,0.1-0.3,0.1   c-0.1,0-0.2,0-0.3-0.1c-0.1-0.1-0.1-0.2-0.1-0.3V67c0-0.1,0.1-0.2,0.1-0.3c0.1-0.1,0.2-0.1,0.3-0.1h2.4c0.9,0,1.6,0.2,2.1,0.6   c0.4,0.4,0.7,0.9,0.7,1.5c0,0.4-0.1,0.8-0.3,1.1c-0.2,0.3-0.6,0.6-1,0.7c0.5,0.1,0.8,0.5,1.1,1.1c0.1,0.4,0.2,0.8,0.2,1.3V73.3z"/>
	<path class="st5" d="M146.4,72.4c0.1,0,0.1-0.1,0.2-0.1c0.1,0,0.2,0,0.3,0.1c0.1,0.1,0.1,0.2,0.1,0.3c0,0.2-0.1,0.3-0.2,0.4   c-0.3,0.2-0.7,0.3-1,0.5c-0.4,0.1-0.8,0.2-1.3,0.2c-0.5,0-1-0.1-1.4-0.3c-0.4-0.2-0.8-0.4-1.1-0.7c-0.7-0.7-1-1.6-1-2.7   c0-1.1,0.3-2,1-2.7c0.7-0.7,1.5-1,2.6-1c0.5,0,0.9,0.1,1.3,0.2c0.4,0.1,0.6,0.2,0.8,0.3c0.2,0.1,0.3,0.2,0.4,0.2   c0,0.1,0.1,0.1,0.1,0.3c0,0.1,0,0.2-0.1,0.3c-0.1,0.1-0.2,0.1-0.3,0.1c-0.1,0-0.2,0-0.2,0c-0.3-0.1-0.6-0.3-0.8-0.3   c-0.3-0.1-0.6-0.1-1.1-0.1c-0.4,0-0.8,0.1-1.1,0.2c-0.3,0.1-0.6,0.3-0.9,0.6c-0.5,0.5-0.7,1.1-0.7,2c0,0.8,0.2,1.5,0.7,2   c0.5,0.5,1.2,0.8,2,0.8c0.4,0,0.7,0,1-0.1C145.8,72.7,146.1,72.6,146.4,72.4"/>
	<path class="st5" d="M152.3,71l-1.4-3.3l-1.4,3.3H152.3z M154.2,73.1c0,0.1,0.1,0.2,0.1,0.3c0,0.1-0.1,0.2-0.1,0.3   c-0.1,0.1-0.2,0.1-0.4,0.1c-0.2,0-0.3-0.1-0.4-0.3l-0.7-1.6h-3.5l-0.7,1.6c-0.1,0.2-0.2,0.3-0.4,0.3c-0.2,0-0.3,0-0.4-0.1   c-0.1-0.1-0.1-0.2-0.1-0.3c0-0.1,0-0.2,0-0.3l2.6-6.1c0.1-0.3,0.3-0.4,0.6-0.4h0.1c0.3,0,0.5,0.1,0.6,0.4L154.2,73.1z"/>
	<path class="st5" d="M158.3,70c0.6,0,1-0.1,1.4-0.3c0.4-0.2,0.5-0.5,0.5-1c0-0.4-0.1-0.7-0.4-0.9c-0.3-0.2-0.8-0.3-1.5-0.3h-1.8V70   H158.3z M161,73.3c0,0.1,0,0.2-0.1,0.3c-0.1,0.1-0.2,0.1-0.3,0.1c-0.1,0-0.2,0-0.3-0.1c-0.1-0.1-0.1-0.2-0.1-0.3V73   c0-0.5-0.1-1-0.2-1.2c-0.1-0.3-0.3-0.5-0.5-0.6c-0.2-0.2-0.5-0.2-0.9-0.2h-2.1v2.4c0,0.1-0.1,0.2-0.1,0.3c-0.1,0.1-0.2,0.1-0.3,0.1   c-0.1,0-0.2,0-0.3-0.1c-0.1-0.1-0.1-0.2-0.1-0.3V67c0-0.1,0-0.2,0.1-0.3c0.1-0.1,0.2-0.1,0.3-0.1h2.4c0.9,0,1.6,0.2,2.1,0.6   c0.4,0.4,0.7,0.9,0.7,1.5c0,0.4-0.1,0.8-0.3,1.1c-0.2,0.3-0.6,0.6-1,0.7c0.5,0.1,0.8,0.5,1.1,1.1c0.1,0.4,0.2,0.8,0.2,1.3V73.3z"/>
	<path class="st5" d="M166.7,71l-1.4-3.3l-1.4,3.3H166.7z M168.6,73.1c0,0.1,0,0.2,0,0.3c0,0.1,0,0.2-0.1,0.3   c-0.1,0.1-0.2,0.1-0.4,0.1c-0.2,0-0.3-0.1-0.4-0.3l-0.7-1.6h-3.5l-0.7,1.6c-0.1,0.2-0.2,0.3-0.4,0.3c-0.2,0-0.3,0-0.4-0.1   c-0.1-0.1-0.1-0.2-0.1-0.3c0-0.1,0-0.2,0-0.3l2.6-6.1c0.1-0.3,0.3-0.4,0.6-0.4h0.1c0.3,0,0.5,0.1,0.6,0.4L168.6,73.1z"/>
	<path class="st5" d="M77.1,78v2.2h3.1c0.1,0,0.2,0,0.3,0.1c0.1,0.1,0.1,0.2,0.1,0.3c0,0.1,0,0.2-0.1,0.3c-0.1,0.1-0.2,0.1-0.3,0.1   h-3.1v2.7c0,0.1,0,0.2-0.1,0.3c-0.1,0.1-0.2,0.1-0.3,0.1c-0.1,0-0.2,0-0.3-0.1c-0.1-0.1-0.1-0.2-0.1-0.3v-6.2c0-0.1,0-0.2,0.1-0.3   c0.1-0.1,0.2-0.1,0.3-0.1h4c0.1,0,0.2,0,0.3,0.1c0.1,0.1,0.1,0.2,0.1,0.3c0,0.1,0,0.2-0.1,0.3c-0.1,0.1-0.2,0.1-0.3,0.1H77.1z"/>
	<path class="st5" d="M85.5,83.4c0.8,0,1.5-0.3,2-0.8c0.5-0.5,0.7-1.2,0.7-2c0-0.8-0.2-1.5-0.7-2c-0.5-0.5-1.1-0.8-2-0.8   c-0.8,0-1.5,0.3-1.9,0.8c-0.5,0.5-0.7,1.2-0.7,2c0,0.8,0.2,1.5,0.7,2C84.1,83.2,84.7,83.4,85.5,83.4 M85.5,77c1.1,0,1.9,0.3,2.6,1   c0.6,0.7,1,1.5,1,2.6c0,1.1-0.4,2-1,2.6c-0.6,0.7-1.5,1-2.6,1c-1.1,0-1.9-0.3-2.6-1c-0.6-0.7-1-1.6-1-2.6c0-1.1,0.3-1.9,1-2.6   C83.6,77.3,84.5,77,85.5,77"/>
	<path class="st5" d="M96,77c0.1,0,0.2,0.1,0.3,0.1c0.1,0.1,0.1,0.2,0.1,0.3v4c0,0.9-0.3,1.6-1,2.1c-0.6,0.4-1.2,0.7-2,0.7   c-0.8,0-1.4-0.2-2-0.7c-0.6-0.5-0.9-1.2-0.9-2.1v-4c0-0.1,0-0.3,0.1-0.3c0.1-0.1,0.2-0.1,0.3-0.1c0.1,0,0.2,0.1,0.3,0.1   c0.1,0.1,0.1,0.2,0.1,0.3v4c0,0.6,0.2,1.1,0.6,1.4c0.4,0.3,0.8,0.5,1.4,0.5s1-0.2,1.4-0.5c0.4-0.3,0.6-0.8,0.6-1.4v-4   c0-0.1,0-0.3,0.1-0.3C95.7,77.1,95.8,77,96,77"/>
	<path class="st5" d="M104.1,77c0.1,0,0.2,0.1,0.3,0.1c0.1,0.1,0.1,0.2,0.1,0.3v6.1c0,0.2-0.1,0.3-0.2,0.5c-0.1,0.1-0.3,0.2-0.5,0.2   h-0.1c-0.2,0-0.4-0.1-0.5-0.3l-3.9-5.7v5.5c0,0.1,0,0.2-0.1,0.3c-0.1,0.1-0.2,0.1-0.3,0.1c-0.1,0-0.2,0-0.3-0.1   c-0.1-0.1-0.1-0.2-0.1-0.3v-6.1c0-0.2,0.1-0.3,0.2-0.5c0.1-0.1,0.3-0.2,0.5-0.2h0.1c0.2,0,0.4,0.1,0.6,0.3l3.9,5.7v-5.5   c0-0.1,0-0.3,0.1-0.3C103.9,77.1,104,77,104.1,77"/>
	<path class="st5" d="M108.9,83.3c0.8,0,1.5-0.2,2-0.7c0.5-0.5,0.7-1.1,0.7-1.9c0-0.8-0.2-1.4-0.7-1.9c-0.5-0.5-1.2-0.7-2-0.7h-1.5   v5.4H108.9z M109.1,77.1c1.1,0,2,0.4,2.7,1.1c0.3,0.3,0.5,0.7,0.7,1.1c0.1,0.4,0.2,0.9,0.2,1.3c0,0.4-0.1,0.9-0.2,1.3   c-0.1,0.4-0.4,0.8-0.7,1.1c-0.7,0.8-1.6,1.1-2.7,1.1h-2c-0.1,0-0.2,0-0.3-0.1c-0.1-0.1-0.1-0.2-0.1-0.3v-6.2c0-0.1,0-0.2,0.1-0.3   c0.1-0.1,0.2-0.1,0.3-0.1H109.1z"/>
	<path class="st5" d="M118,81.5l-1.4-3.3l-1.4,3.3H118z M119.8,83.6c0,0.1,0.1,0.2,0.1,0.3c0,0.1,0,0.2-0.1,0.3   c-0.1,0.1-0.2,0.1-0.4,0.1c-0.2,0-0.3-0.1-0.4-0.3l-0.7-1.6h-3.5l-0.7,1.6c-0.1,0.2-0.2,0.3-0.4,0.3c-0.2,0-0.3,0-0.4-0.1   c-0.1-0.1-0.1-0.2-0.1-0.3c0-0.1,0-0.2,0-0.3l2.6-6.1c0.1-0.3,0.3-0.4,0.6-0.4h0.1c0.3,0,0.5,0.1,0.6,0.4L119.8,83.6z"/>
	<path class="st5" d="M126.1,77.2c0.1,0.1,0.1,0.2,0.1,0.3c0,0.1,0,0.2-0.1,0.3c-0.1,0.1-0.2,0.1-0.3,0.1h-2.1v5.8   c0,0.1,0,0.2-0.1,0.3c-0.1,0.1-0.2,0.1-0.3,0.1c-0.1,0-0.2,0-0.3-0.1c-0.1-0.1-0.1-0.2-0.1-0.3V78h-2.1c-0.1,0-0.2,0-0.3-0.1   c-0.1-0.1-0.1-0.2-0.1-0.3c0-0.1,0-0.2,0.1-0.3c0.1-0.1,0.2-0.1,0.3-0.1h5.1C125.9,77.1,126,77.1,126.1,77.2"/>
	<path class="st5" d="M127.8,77c0.1,0,0.2,0.1,0.3,0.1c0.1,0.1,0.1,0.2,0.1,0.3v6.3c0,0.1-0.1,0.2-0.1,0.3c-0.1,0.1-0.2,0.1-0.3,0.1   c-0.1,0-0.2,0-0.3-0.1c-0.1-0.1-0.1-0.2-0.1-0.3v-6.3c0-0.1,0-0.3,0.1-0.3C127.6,77.1,127.7,77,127.8,77"/>
	<path class="st5" d="M133.4,83.4c0.8,0,1.5-0.3,2-0.8c0.5-0.5,0.7-1.2,0.7-2c0-0.8-0.2-1.5-0.7-2c-0.5-0.5-1.1-0.8-2-0.8   c-0.8,0-1.5,0.3-1.9,0.8c-0.5,0.5-0.7,1.2-0.7,2c0,0.8,0.2,1.5,0.7,2C131.9,83.2,132.6,83.4,133.4,83.4 M133.4,77   c1.1,0,1.9,0.3,2.6,1c0.6,0.7,1,1.5,1,2.6c0,1.1-0.4,2-1,2.6c-0.7,0.7-1.5,1-2.6,1c-1.1,0-1.9-0.3-2.6-1c-0.6-0.7-1-1.6-1-2.6   c0-1.1,0.3-1.9,1-2.6C131.5,77.3,132.3,77,133.4,77"/>
	<path class="st5" d="M144.2,77c0.1,0,0.2,0.1,0.3,0.1c0.1,0.1,0.1,0.2,0.1,0.3v6.1c0,0.2-0.1,0.3-0.2,0.5c-0.1,0.1-0.3,0.2-0.5,0.2   h-0.1c-0.2,0-0.4-0.1-0.5-0.3l-3.9-5.7v5.5c0,0.1-0.1,0.2-0.1,0.3c-0.1,0.1-0.2,0.1-0.3,0.1c-0.1,0-0.2,0-0.3-0.1   c-0.1-0.1-0.1-0.2-0.1-0.3v-6.1c0-0.2,0.1-0.3,0.2-0.5c0.1-0.1,0.3-0.2,0.5-0.2h0.1c0.2,0,0.4,0.1,0.6,0.3l3.9,5.7v-5.5   c0-0.1,0.1-0.3,0.1-0.3C144,77.1,144.1,77,144.2,77"/>
</g>
</svg>